<svg version="1" xmlns="http://www.w3.org/2000/svg" width="466.667" height="466.667" viewBox="0 0 350.000000 350.000000"><path d="M204.6 11.7c-.1.1-3.1.4-6.6.7-14.7 1.3-25.6 3.8-38 8.7-7.6 3.1-23.2 11.1-25.6 13.2-3.3 3-4.4 3.7-5.4 3.7-.6 0-1.3.7-1.6 1.5-.4.8-1 1.5-1.6 1.5-.5 0-1.9 1-3.2 2.2-1.3 1.3-4.7 4.4-7.4 7-2.8 2.7-4.9 4.8-4.6 4.8.4 0-.7 1.3-2.2 2.8C104.2 62 99 68.7 99 69.9c0 .6-.4 1.1-1 1.1-.5 0-1 .6-1 1.3 0 .7-.9 2.3-2 3.5-1.2 1.2-1.8 2.2-1.5 2.2.4 0-.1.7-.9 1.6-.9.8-1.4 2-1.1 2.5.4.5.1.9-.4.9-.6 0-1.1.4-1.1 1 0 .5-1.3 3.7-2.9 7.2-1.7 3.5-3.9 9.4-5.1 13.3-2.1 6.9-2.6 8.6-3.5 13.5-.3 1.4-.7 3.6-1 5-2 9.8-2.1 32.5-.1 42 .1.8.6 3.7 1.1 6.5.4 2.7 1.4 6.4 2.2 8.2.7 1.8 1 3.3.7 3.3-.4 0-.1.7.6 1.5s.9 1.5.4 1.5-.2.5.6 1c1.3.9 1.3 1 0 1-.9 0-1.1.3-.5.8 1.2.8 7.7 15.1 7.8 16.9 0 .7.4 1.3.9 1.3.4 0 1.5 1.5 2.3 3.2 3 6.2 4 7.8 4.7 7.8.5 0 .8.7.8 1.5s.5 1.5 1 1.5c.6 0 1 .7 1 1.6 0 .8.5 1.2 1 .9.6-.3 1 .1 1 1 0 .8.7 1.8 1.6 2.2.9.3 1.3 1.2.9 2.1-.3.9-.3 1.3.1 1 .9-1 3.7 2 2.9 3.2-.3.6.1.7.9.4.9-.3 1.6-.1 1.6.5 0 1.5 3.7 5.1 5.2 5.1.6 0 .8.3.5.7-.4.3.1 1.2 1.1 1.9.9.7 1.4 1.5 1 1.9-.4.4-4.3-2.8-8.6-7.2-6.7-6.7-8.2-7.8-9.6-6.8-.9.7-1.6 1.8-1.6 2.5s-.3 1-.7.7c-.9-.9-3.4 1.3-2.7 2.4.3.5.1.9-.5.9s-3.8 2.8-7.2 6.2c-3.4 3.5-6.6 6.2-7.1 6-.5-.1-.7.2-.3.8.3.5.2 1-.3 1s-1.5 1.1-2.2 2.5c-.8 1.5-2 2.3-2.7 2-.8-.2-1.2-.1-.9.4.8 1.2-1.9 3.3-2.8 2.3-.4-.4-.7-.2-.6.3.4 1.9 0 3.8-.7 3.2-.3-.4-1.6.7-2.8 2.3-1.2 1.6-2.5 2.7-2.8 2.3-.4-.3-.7.1-.7 1.1 0 .9-.4 1.4-1 1.1-.5-.3-1-.3-1 .2-.1 1.3-6.7 8.3-8 8.3-.6 0-.8.5-.5 1 .3.6-.1 1-.9 1-.9 0-1.6.4-1.6.9 0 .4-5.2 6-11.5 12.3-6.3 6.3-11.1 11.8-10.7 12.2.4.4.2.6-.4.4-1.2-.4-11 9.2-10.7 10.4.2.4-.1.7-.5.5-.5-.1-2.5 1.5-4.6 3.6l-3.7 3.9 4.7 4.6c2.6 2.6 6.4 6.4 8.5 8.4l3.7 3.8 16.4-16.5c9.1-9.1 16.2-16.5 15.9-16.5-.3 0 .6-.8 2.2-1.8 1.5-1 2.4-2.2 2-2.5-.3-.4.1-.7 1.1-.7.9 0 1.5-.4 1.1-.9-.3-.5.4-1.2 1.5-1.6 1.1-.4 1.8-1.1 1.5-1.6-.4-.5.1-.9.9-.9 1.5 0 2.1-1.2 1.7-3.3-.1-.5.3-.6.8-.3.5.4 1.4-.2 2-1.1.6-1 1.1-1.5 1.1-1.1 0 .4 2.1-1.6 4.8-4.4 6.9-7.5 10.4-10.8 11.4-10.8.5 0 .7-.4.3-.9-.3-.5.4-1.2 1.5-1.6 1.1-.4 1.8-1 1.5-1.5-.3-.5.7-1.6 2.2-2.4 1.5-.8 2.5-1.5 2.1-1.6-.4 0 4.5-5.3 11-11.9l11.7-11.8 2.7 3c1.6 1.6 2.8 2.6 2.8 2.2 0-.5.9.2 2 1.5s2 1.9 2 1.5c0-.4.9.2 2 1.5s2 2 2 1.7c0-.5 9.2 5.1 11.5 7.1.6.5 1.5.7 2.1.5.6-.2 1.7.3 2.4 1.2.7.8 2.1 1.5 3.1 1.5 1.1 0 1.9.4 1.9 1 0 .5.8 1 1.8 1s2.8.8 4.1 1.7c1.4.9 2.1 1.1 1.7.5-.3-.6.7-.4 2.4.4 1.6.8 3.9 1.6 5 1.7 1.1.1 2 .5 2 1 0 .4.5.5 1 .2.6-.3 1 0 1 .7 0 .9.3.9 1-.2.5-.8 1-1 1-.4s.6 1.1 1.3 1.2c3.4.3 9.1 1.3 9.9 1.8.6.4 3.8.8 7.1.9 3.4.2 8.7.4 11.8.6 3 .1 6.1-.1 6.7-.5.6-.3 1.3-.2 1.6.2.7 1.2 5.9.2 6.8-1.2.6-.8.8-.8.8 0 0 .7 1.1.9 2.8.7 1.5-.3 3.7-.6 5-.6 1.2-.1 2.2-.7 2.2-1.2 0-.6.5-.3 1 .5.7 1.2 1 1.2 1 .1 0-.7.6-1.1 1.5-.8.8.4 1.7.2 2-.3.3-.5 1.4-.7 2.5-.5 1.1.2 2-.1 2-.6 0-.6.5-.7 1-.4.6.3 1.6.3 2.3-.2 2.1-1.3 14.2-5.1 14.8-4.7.4.2.9-.3 1.3-1.1.3-.8 1.4-1.5 2.4-1.5 1.1 0 3.1-.9 4.5-2 1.5-1.2 2.9-2 3.1-1.8.3.2 1.3-.4 2.3-1.2 1-.9 2.1-1.6 2.6-1.8 2.3-.6 6.7-3.4 6.7-4.2 0-.6.8-1 1.8-1 .9 0 2.3-.9 3-2 .7-1.1 1.8-2 2.6-2s1.6-.7 2-1.5c.3-.8 1.3-1.5 2.2-1.5 1 0 1.5-.3 1.1-.6-.3-.3 1.3-2.3 3.6-4.3 5.3-4.5 8.9-8.1 8.2-8.1-.3 0 .8-1.3 2.5-3 1.7-1.6 2.9-3 2.6-3-.4 0 1.4-2.4 5.4-6.9.8-1 1.6-2.4 1.8-3.2.2-.8.8-1.9 1.5-2.4 1.6-1.4 8.7-15.2 8.7-17 0-.8.3-1.5.8-1.5s4.1-9.7 4.8-13.3c.1-.4.3-.9.4-1.2.1-.3.4-1 .5-1.5.1-.6.4-1.2.5-1.5.4-.9 2.1-9.3 2.6-13 .2-1.1.5-3.6.9-5.5 1.3-7.7.6-31.2-1-38-.4-1.4-.8-3.4-.9-4.5-.9-6.6-6-21.3-10.6-30.8-2.1-4.2-3.6-7.7-3.4-7.7.3 0-.1-.6-.9-1.4-.7-.8-2.9-3.8-4.8-6.8-1.8-2.9-3.8-5.8-4.4-6.5-.5-.6-2.3-2.8-4-4.8-5.1-6.2-17.7-18.5-18.9-18.5-.3 0-2-1.4-3.8-3-1.8-1.7-3.8-3-4.4-3-.6 0-1.7-.7-2.4-1.5-1.2-1.5-18.4-10.3-25.5-13.2-3.3-1.3-16.9-5.2-20-5.8-1.9-.3-8.8-1.2-15-2-1.6-.2-3.2-.4-3.5-.5-.8-.3-12.1-.5-12.4-.3z"/></svg>